<?xml version="1.0" encoding="UTF-8" standalone="no"?>
<!-- Created with Inkscape (http://www.inkscape.org/) -->

<svg
   xmlns:dc="http://purl.org/dc/elements/1.1/"
   xmlns:cc="http://creativecommons.org/ns#"
   xmlns:rdf="http://www.w3.org/1999/02/22-rdf-syntax-ns#"
   xmlns:svg="http://www.w3.org/2000/svg"
   xmlns="http://www.w3.org/2000/svg"
   xmlns:sodipodi="http://sodipodi.sourceforge.net/DTD/sodipodi-0.dtd"
   xmlns:inkscape="http://www.inkscape.org/namespaces/inkscape"
   width="45.837097mm"
   height="71.93647mm"
   viewBox="0 0 162.41491 254.893"
   id="svg2"
   version="1.1"
   inkscape:version="0.91 r13725"
   sodipodi:docname="train_tracks_joined.svg">
  <sodipodi:namedview
     id="base"
     pagecolor="#ffffff"
     bordercolor="#666666"
     borderopacity="1.0"
     inkscape:pageopacity="0.0"
     inkscape:pageshadow="2"
     inkscape:zoom="11.2"
     inkscape:cx="30.410924"
     inkscape:cy="46.061444"
     inkscape:document-units="px"
     inkscape:current-layer="layer1"
     showgrid="false"
     inkscape:window-width="1280"
     inkscape:window-height="687"
     inkscape:window-x="0"
     inkscape:window-y="1"
     inkscape:window-maximized="1"
     units="in"
     fit-margin-top="0"
     fit-margin-left="0"
     fit-margin-right="0"
     fit-margin-bottom="0" />
  <defs
     id="defs4" />
  <metadata
     id="metadata7">
    <rdf:RDF>
      <cc:Work
         rdf:about="">
        <dc:format>image/svg+xml</dc:format>
        <dc:type
           rdf:resource="http://purl.org/dc/dcmitype/StillImage" />
        <dc:title />
      </cc:Work>
    </rdf:RDF>
  </metadata>
  <g
     transform="translate(-11.076831,-783.17366)"
     id="layer1"
     inkscape:groupmode="layer"
     inkscape:label="Layer 1">
    <path
       sodipodi:nodetypes="csccsssscsssssccccccscsccccscsccsccsscccccccscccccsssscsscssccsssccssccccsssscssccsscssccsscssscccsccccssscc"
       inkscape:connector-curvature="0"
       id="path4203"
       d="M160.43785 816.68156L133.18365 816.42814L111.91505125 816.15624L109.041362344 815.894130625L108.563457402 815.699299453L108.35105 815.44967L108.358436772 814.059360962L108.532173867 812.375702227L109.270034687 808.317123437L111.5466525 798.756435L112.650752148 794.009476445L113.442274063 789.788209063L113.70388957 786.470208398L113.568067212 785.267925444L113.21827 784.43305L112.840473809 784.144598926L112.239022344 783.908498906L110.32528125 783.57622625L107.397302031 783.401980469L103.37534 783.35151L99.8063041797 783.365702148L97.1363484375 783.525560937L95.2304303516 784.007009883L94.5217846729 784.423306763L93.9535075 784.9859725L93.5087185303 785.716997534L93.1705374609 786.638372305L92.7464778125 789.140132812L92.5462861328 792.667177539L92.43492 797.39543L92.2761921875 803.231408906L92.04736 806.53856875L91.8799576953 807.450507832L91.6629928125 807.978241719L91.3857865234 808.204436934L91.03766 808.21176L90.451865332 807.977774473L89.9755257812 807.482067656L89.5975705273 806.661830449L89.30692875 805.45425375L88.9433023438 801.625845469L88.79608 795.49437L88.527457875 788.90412875L88.2919479531 786.677991094L88.032899 785.5975L87.4609330566 785.095830508L86.4744780781 784.650612812L83.524327625 783.9695575L79.7149008594 783.634383437L75.578651 783.72514L73.1028338125 783.804288437L70.8976905 783.80098L69.1741806875 783.965049062L68.5589632266 784.187923398L68.143264 784.54633L68.0277437478 784.982335676L68.037463873 785.744432754L68.3768687969 788.089116406L69.945242125 794.95594875L73.517881 808.56353L74.4693080312 812.867298125L74.6719855 815.0020475L74.5620851992 815.554390156L74.3484479688 815.922498125L73.72123 816.58337L73.2532646172 816.880915957L72.343555 817.118707656L68.88266725 817.43978625L62.706095125 817.596121719L53.181367 817.63723L23.868617 817.48856L11.553447 966.3008L11.7078491875 966.781687656L11.7680195 967.70238375L11.7294785625 968.671820469L11.587747 969.29893L11.633147 971.35922L11.690172 972.7214375L11.573047 973.35092L11.44925075 973.84391125L11.478147 974.82744L11.450647 976.32534L11.2999993437 977.388888125L11.25415575 979.489315L11.3105577812 981.603001875L11.466647 982.70633L11.59069575 982.9435375L11.456047 983.022L11.286962 983.9845L11.304897 986.87321L11.395997 991.73457L11.293357 997.03787L11.426887 1004.568L11.4089230656 1005.62834375L11.4391601699 1005.95264297L11.691220675 1006.1707L13.4478439469 1006.38110625L17.852857 1006.4456L23.8997095 1006.43015L25.06663825 1006.32426875L25.528477 1006.13L26.22984075 1005.7663375L26.5727512187 1005.82218594L26.888207 1006.038L27.4046902813 1006.23497656L28.29893075 1006.3673125L29.921567 1006.3181L30.238187 1005.9128L30.57883325 1005.5691625L31.396517 1005.1482L32.6132467813 1004.52754844L33.32744075 1003.7841875L33.6444433438 1002.74133281L33.669599 1001.2222L33.2559911875 997.004407656L32.62430325 993.97397875L31.141876 989.46397L31.286246625 986.67745125L31.858985 984.40082L32.9051156699 981.858151289L34.2545801719 979.621983437L35.8761173691 977.717738867L37.738466125 976.17084L39.8103653027 975.006709258L42.0605537656 974.250769063L44.457770377 973.928441836L46.970754 974.06515L48.5519069727 974.3999575L50.0561782188 974.922041406L51.4757041055 975.617785703L52.802621 976.473574375L54.0290652695 977.475791406L55.1471732813 978.610820781L56.1490814023 979.865046484L57.026926 981.2248525L57.7728434414 982.676622812L58.3789700937 984.206741406L58.8374423242 985.801592266L59.1403965 987.447559375L59.2799689883 989.131026719L59.2482961563 990.838378281L59.0375143711 992.555998047L58.63976 994.27027L57.91387825 998.54629L57.6573737188 1000.65001562L57.670536 1002.8359L57.9254945 1003.2765375L58.180453 1003.4489L58.709183 1004.4172L59.309519 1005.7849L60.44139425 1006.0808L62.1724074688 1006.28220625L64.961177 1006.3695L71.400897 1006.3355L75.694047 1006.4603L83.562217 1006.5433L86.7376845 1006.563825L87.933407 1006.7465L88.4279371563 1006.93910781L89.32722825 1007.0070375L90.2262737188 1006.94819844L90.720067 1006.7605L91.238287125 1006.5821625L92.265098 1006.508L95.770558 1006.58L98.238728 1006.508L101.99526 1006.2505L103.2932925 1006.12105L104.30637 1006.3768L105.384247969 1006.65437344L106.78757625 1006.7430125L108.443018906 1006.64304531L110.27724 1006.3548L112.053705 1006.0739875L112.434329063 1006.15093594L112.71912 1006.3748L113.1704475 1006.649875L113.67552 1006.6071L117.83811 1006.3216L121.88478875 1006.4263375L124.90651 1006.946425L126.013481094 1007.35101016L126.84077625 1007.845975L127.380583281 1008.42683359L127.62509 1009.0891L127.9647 1011.6105L128.174288906 1014.33087813L128.04956625 1016.767475L127.613062969 1018.88258438L126.88731 1020.6385L126.64606 1021.2571625L126.66275 1021.6911L126.730265 1022.322675L126.63665 1023.3984L126.579600156 1024.71615938L126.73905375 1026.27765L127.093820469 1027.94961563L127.62271 1029.5988L128.06004 1031.2476L128.12714125 1031.6037375L128.28848 1031.7519L128.51692 1031.9885L128.80244 1032.7676L128.97377 1033.068L129.522591875 1033.85930781L130.8167075 1035.1312625L132.327591875 1036.42251094L133.52672 1037.2717L134.65748625 1037.7120125L135.98581 1037.8818L137.30609125 1037.798275L138.24544 1037.2406L139.08373 1036.5569L139.05753 1033.1439L138.88619 1023.9355L138.87699625 1019.7258875L139.10688 1018.3611L139.37594 1017.8115L139.6039 1017.5847L139.72581375 1017.6564875L139.6988 1017.829L139.70345625 1018.0015125L139.90135 1018.0733L140.13835875 1017.99105L140.23694 1017.7933L140.3806625 1017.7717375L140.72621 1018.1125L141.15506125 1018.9270375L141.32172 1020.4075L141.59554 1029.4045L141.749877031 1033.91039844L141.96742875 1036.1205375L142.150844785 1036.66235059L142.411186094 1036.98740781L143.24414 1037.4635L144.28332 1037.6985125L146.17237 1037.4845L147.044288457 1037.16177656L148.029802031 1036.5147625L150.08513375 1034.5305L151.825403594 1032.0969875L152.417089824 1030.88841094L152.73765 1029.7795L153.08339 1028.342L153.37535125 1027.35326875L153.5804475 1025.952L153.670235 1024.42098125L153.61627 1023.043L153.47516 1021.0048L152.84079 1019.1728L152.453404375 1018.24372187L152.196785 1017.276975L151.92403 1014.1285L151.87436 1011.48883281L152.030025 1009.6090375L152.4611275 1008.28309844L153.23777 1007.305L153.657416875 1007.07274531L154.246351875 1006.93880625L155.7817375 1006.870625L159.23013 1006.8663L166.16575 1006.7367L169.01978375 1006.7396L169.680504531 1006.667175L169.89069 1006.5409L170.080095 1006.4897875L170.2695 1006.5559L173.24317 1006.5559L173.13317 1005.4577L173.21520375 1001.73382375L173.08807 994.64454L172.870865 986.68110875L172.9737 980.47759L173.26551 979.29548L173.3082225 979.055045L173.17371 978.8609L173.0322125 978.6780325L173.05822 978.46464L173.04046 978.29861625L172.79374 978.22956L172.578362031 978.096086875L172.46813875 977.51051L172.48426 973.8721L172.63536 970.6144625L172.86218 968.99586L173.029609375 968.541293437L173.063565 967.9662225L172.70665 965.98146L160.43785 816.68156"
       style="fill:none;fill-opacity:1;stroke:#000000;stroke-width:0.03543307;stroke-miterlimit:4;stroke-dasharray:none;stroke-opacity:1" />
  </g>
</svg>
