  0
SECTION
  2
HEADER
  9
$ACADVER
  1
AC1014
  9
$HANDSEED
  5
FFFF
  9
$MEASUREMENT
 70
     1
  0
ENDSEC
  0
SECTION
  2
TABLES
  0
TABLE
  2
VPORT
  5
8
330
0
100
AcDbSymbolTable
 70
     4
  0
VPORT
  5
2E
330
8
100
AcDbSymbolTableRecord
100
AcDbViewportTableRecord
  2
*ACTIVE
 70
     0
 10
0.0
 20
0.0
 11
1.0
 21
1.0
 12
210.0
 22
148.5
 13
0.0
 23
0.0
 14
10.0
 24
10.0
 15
10.0
 25
10.0
 16
0.0
 26
0.0
 36
1.0
 17
0.0
 27
0.0
 37
0.0
 40
341.0
 41
1.24
 42
50.0
 43
0.0
 44
0.0
 50
0.0
 51
0.0
 71
     0
 72
   100
 73
     1
 74
     3
 75
     0
 76
     0
 77
     0
 78
     0
  0
ENDTAB
  0
TABLE
  2
LTYPE
  5
5
330
0
100
AcDbSymbolTable
 70
     1
  0
LTYPE
  5
14
330
5
100
AcDbSymbolTableRecord
100
AcDbLinetypeTableRecord
  2
BYBLOCK
 70
     0
  3

 72
    65
 73
     0
 40
0.0
  0
LTYPE
  5
15
330
5
100
AcDbSymbolTableRecord
100
AcDbLinetypeTableRecord
  2
BYLAYER
 70
     0
  3

 72
    65
 73
     0
 40
0.0
  0
LTYPE
  5
16
330
5
100
AcDbSymbolTableRecord
100
AcDbLinetypeTableRecord
  2
CONTINUOUS
 70
     0
  3
Solid line
 72
    65
 73
     0
 40
0.0
  0
ENDTAB
  0
TABLE
  2
LAYER
  5
2
100
AcDbSymbolTable
 70
2
  0
LAYER
  5
50
100
AcDbSymbolTableRecord
100
AcDbLayerTableRecord
  2
0
 70
0
  6
CONTINUOUS
  0
LAYER
  5
51
100
AcDbSymbolTableRecord
100
AcDbLayerTableRecord
  2
Layer_1
 70
0
  6
CONTINUOUS
  0
ENDTAB
  0
TABLE
  2
STYLE
  5
3
330
0
100
AcDbSymbolTable
 70
     1
  0
STYLE
  5
11
330
3
100
AcDbSymbolTableRecord
100
AcDbTextStyleTableRecord
  2
STANDARD
 70
     0
 40
0.0
 41
1.0
 50
0.0
 71
     0
 42
2.5
  3
txt
  4

  0
ENDTAB
  0
TABLE
  2
VIEW
  5
6
330
0
100
AcDbSymbolTable
 70
     0
  0
ENDTAB
  0
TABLE
  2
UCS
  5
7
330
0
100
AcDbSymbolTable
 70
     0
  0
ENDTAB
  0
TABLE
  2
APPID
  5
9
330
0
100
AcDbSymbolTable
 70
     2
  0
APPID
  5
12
330
9
100
AcDbSymbolTableRecord
100
AcDbRegAppTableRecord
  2
ACAD
 70
     0
  0
ENDTAB
  0
TABLE
  2
DIMSTYLE
  5
A
330
0
100
AcDbSymbolTable
 70
     1
  0
DIMSTYLE
105
27
330
A
100
AcDbSymbolTableRecord
100
AcDbDimStyleTableRecord
  2
ISO-25
 70
     0
  3

  4

  5

  6

  7

 40
1.0
 41
2.5
 42
0.625
 43
3.75
 44
1.25
 45
0.0
 46
0.0
 47
0.0
 48
0.0
140
2.5
141
2.5
142
0.0
143
0.03937007874016
144
1.0
145
0.0
146
1.0
147
0.625
 71
     0
 72
     0
 73
     0
 74
     0
 75
     0
 76
     0
 77
     1
 78
     8
170
     0
171
     3
172
     1
173
     0
174
     0
175
     0
176
     0
177
     0
178
     0
270
     2
271
     2
272
     2
273
     2
274
     3
340
11
275
     0
280
     0
281
     0
282
     0
283
     0
284
     8
285
     0
286
     0
287
     3
288
     0
  0
ENDTAB
  0
TABLE
  2
BLOCK_RECORD
  5
1
330
0
100
AcDbSymbolTable
 70
     1
  0
BLOCK_RECORD
  5
1F
330
1
100
AcDbSymbolTableRecord
100
AcDbBlockTableRecord
  2
*MODEL_SPACE
  0
BLOCK_RECORD
  5
1B
330
1
100
AcDbSymbolTableRecord
100
AcDbBlockTableRecord
  2
*PAPER_SPACE
  0
ENDTAB
  0
ENDSEC
  0
SECTION
  2
BLOCKS
  0
BLOCK
  5
20
330
1F
100
AcDbEntity
  8
0
100
AcDbBlockBegin
  2
*MODEL_SPACE
 70
     0
 10
0.0
 20
0.0
 30
0.0
  3
*MODEL_SPACE
  1

  0
ENDBLK
  5
21
330
1F
100
AcDbEntity
  8
0
100
AcDbBlockEnd
  0
BLOCK
  5
1C
330
1B
100
AcDbEntity
 67
     1
  8
0
100
AcDbBlockBegin
  2
*PAPER_SPACE
  1

  0
ENDBLK
  5
1D
330
1B
100
AcDbEntity
 67
     1
  8
0
100
AcDbBlockEnd
  0
ENDSEC
  0
SECTION
  2
ENTITIES
  0
LWPOLYLINE
  5
100
100
AcDbEntity
  8
Layer_1
 62
7
100
AcDbPolyline
 90
289
 70
0
 10
42.244198
 20
62.569694
 30
0.0
 10
34.552457
 20
62.641215
 30
0.0
 10
28.169244
 20
62.769442
 30
0.0
 10
27.410203
 20
62.839380
 30
0.0
 10
27.283975
 20
62.891360
 30
0.0
 10
27.227869
 20
62.957964
 30
0.0
 10
27.229760
 20
63.328917
 30
0.0
 10
27.275646
 20
63.778138
 30
0.0
 10
27.470541
 20
64.861022
 30
0.0
 10
28.071873
 20
67.411939
 30
0.0
 10
28.363505
 20
68.678487
 30
0.0
 10
28.572572
 20
69.804777
 30
0.0
 10
28.641674
 20
70.690063
 30
0.0
 10
28.605801
 20
71.010848
 30
0.0
 10
28.513407
 20
71.233603
 30
0.0
 10
28.413616
 20
71.310565
 30
0.0
 10
28.254752
 20
71.373560
 30
0.0
 10
27.749268
 20
71.462214
 30
0.0
 10
26.975888
 20
71.508705
 30
0.0
 10
25.913551
 20
71.522195
 30
0.0
 10
24.970845
 20
71.518413
 30
0.0
 10
24.265619
 20
71.475761
 30
0.0
 10
23.762200
 20
71.347302
 30
0.0
 10
23.575023
 20
71.236228
 30
0.0
 10
23.424922
 20
71.086105
 30
0.0
 10
23.307438
 20
70.891056
 30
0.0
 10
23.218112
 20
70.645220
 30
0.0
 10
23.106103
 20
69.977720
 30
0.0
 10
23.053226
 20
69.036658
 30
0.0
 10
23.023810
 20
67.775099
 30
0.0
 10
22.981885
 20
66.217983
 30
0.0
 10
22.921442
 20
65.335590
 30
0.0
 10
22.877227
 20
65.092272
 30
0.0
 10
22.819918
 20
64.951469
 30
0.0
 10
22.746699
 20
64.891116
 30
0.0
 10
22.654746
 20
64.889140
 30
0.0
 10
22.500018
 20
64.951573
 30
0.0
 10
22.374200
 20
65.083831
 30
0.0
 10
22.274369
 20
65.302683
 30
0.0
 10
22.197601
 20
65.624882
 30
0.0
 10
22.101555
 20
66.646346
 30
0.0
 10
22.062668
 20
68.282304
 30
0.0
 10
21.991716
 20
70.040667
 30
0.0
 10
21.929509
 20
70.634629
 30
0.0
 10
21.861086
 20
70.922921
 30
0.0
 10
21.710011
 20
71.056771
 30
0.0
 10
21.449454
 20
71.175564
 30
0.0
 10
20.670218
 20
71.357273
 30
0.0
 10
19.664017
 20
71.446706
 30
0.0
 10
18.571492
 20
71.422463
 30
0.0
 10
17.917544
 20
71.401353
 30
0.0
 10
17.335090
 20
71.402200
 30
0.0
 10
16.879852
 20
71.358424
 30
0.0
 10
16.717351
 20
71.298960
 30
0.0
 10
16.607551
 20
71.203332
 30
0.0
 10
16.577038
 20
71.087000
 30
0.0
 10
16.579578
 20
70.883664
 30
0.0
 10
16.669227
 20
70.258071
 30
0.0
 10
17.083488
 20
68.425909
 30
0.0
 10
18.027144
 20
64.795231
 30
0.0
 10
18.278449
 20
63.646928
 30
0.0
 10
18.331983
 20
63.077350
 30
0.0
 10
18.302955
 20
62.929976
 30
0.0
 10
18.246525
 20
62.831763
 30
0.0
 10
18.080856
 20
62.655433
 30
0.0
 10
17.957250
 20
62.576044
 30
0.0
 10
17.716964
 20
62.512598
 30
0.0
 10
16.802825
 20
62.426929
 30
0.0
 10
14.662029
 20
62.311537
 30
0.0
 10
11.973939
 20
62.299937
 30
0.0
 10
3.701229
 20
62.341895
 30
0.0
 10
0.225615
 20
20.343774
 30
0.0
 10
0.269190
 20
20.208057
 30
0.0
 10
0.286172
 20
19.948217
 30
0.0
 10
0.275295
 20
19.674620
 30
0.0
 10
0.235295
 20
19.497635
 30
0.0
 10
0.248108
 20
18.916176
 30
0.0
 10
0.264203
 20
18.531727
 30
0.0
 10
0.231148
 20
18.354074
 30
0.0
 10
0.196210
 20
18.214941
 30
0.0
 10
0.204366
 20
17.937367
 30
0.0
 10
0.196605
 20
17.514626
 30
0.0
 10
0.154089
 20
17.214469
 30
0.0
 10
0.141152
 20
16.621681
 30
0.0
 10
0.157069
 20
16.025154
 30
0.0
 10
0.201121
 20
15.713769
 30
0.0
 10
0.236130
 20
15.646823
 30
0.0
 10
0.198129
 20
15.624669
 30
0.0
 10
0.150410
 20
15.353030
 30
0.0
 10
0.155470
 20
14.537769
 30
0.0
 10
0.181180
 20
13.165774
 30
0.0
 10
0.152213
 20
11.669065
 30
0.0
 10
0.189898
 20
9.543903
 30
0.0
 10
0.184829
 20
9.244663
 30
0.0
 10
0.193364
 20
9.153138
 30
0.0
 10
0.264501
 20
9.091586
 30
0.0
 10
0.760259
 20
9.032206
 30
0.0
 10
2.003452
 20
9.013862
 30
0.0
 10
3.710008
 20
9.018095
 30
0.0
 10
4.039341
 20
9.047982
 30
0.0
 10
4.169682
 20
9.102818
 30
0.0
 10
4.367623
 20
9.205462
 30
0.0
 10
4.464399
 20
9.189658
 30
0.0
 10
4.553428
 20
9.128754
 30
0.0
 10
4.699191
 20
9.073157
 30
0.0
 10
4.809022
 20
9.035819
 30
0.0
 10
4.936164
 20
9.049647
 30
0.0
 10
5.035119
 20
9.164032
 30
0.0
 10
5.141584
 20
9.261004
 30
0.0
 10
5.397142
 20
9.379819
 30
0.0
 10
5.777416
 20
9.554995
 30
0.0
 10
6.000629
 20
9.764770
 30
0.0
 10
6.099704
 20
10.059100
 30
0.0
 10
6.107567
 20
10.487824
 30
0.0
 10
6.097940
 20
11.678181
 30
0.0
 10
5.906851
 20
12.533427
 30
0.0
 10
5.458407
 20
13.806249
 30
0.0
 10
5.502080
 20
14.592689
 30
0.0
 10
5.843711
 20
15.235197
 30
0.0
 10
6.147757
 20
15.952795
 30
0.0
 10
6.539963
 20
16.583891
 30
0.0
 10
7.011244
 20
17.121310
 30
0.0
 10
7.552514
 20
17.557880
 30
0.0
 10
8.154688
 20
17.886423
 30
0.0
 10
8.808679
 20
18.099766
 30
0.0
 10
9.505402
 20
18.190735
 30
0.0
 10
10.235772
 20
18.152152
 30
0.0
 10
10.695316
 20
18.057662
 30
0.0
 10
11.132515
 20
17.910319
 30
0.0
 10
11.545084
 20
17.713963
 30
0.0
 10
11.930737
 20
17.472443
 30
0.0
 10
12.287189
 20
17.189594
 30
0.0
 10
12.612154
 20
16.869263
 30
0.0
 10
12.903347
 20
16.515292
 30
0.0
 10
13.158483
 20
16.131526
 30
0.0
 10
13.375275
 20
15.721804
 30
0.0
 10
13.551439
 20
15.289970
 30
0.0
 10
13.836477
 20
14.839860
 30
0.0
 10
13.928122
 20
14.375322
 30
0.0
 10
13.970345
 20
13.900229
 30
0.0
 10
13.960763
 20
13.418363
 30
0.0
 10
13.896999
 20
12.933618
 30
0.0
 10
13.776677
 20
12.449804
 30
0.0
 10
13.684829
 20
11.243022
 30
0.0
 10
13.604662
 20
10.649311
 30
0.0
 10
13.608773
 20
10.032402
 30
0.0
 10
13.688458
 20
9.908055
 30
0.0
 10
13.768143
 20
9.859399
 30
0.0
 10
13.933390
 20
9.586124
 30
0.0
 10
14.121019
 20
9.200128
 30
0.0
 10
14.474773
 20
9.116619
 30
0.0
 10
14.845322
 20
9.059779
 30
0.0
 10
15.298465
 20
9.035226
 30
0.0
 10
17.115897
 20
9.044821
 30
0.0
 10
18.327519
 20
9.009600
 30
0.0
 10
20.548091
 20
8.986176
 30
0.0
 10
21.444279
 20
8.980531
 30
0.0
 10
21.781738
 20
8.928969
 30
0.0
 10
21.921306
 20
8.874613
 30
0.0
 10
22.175106
 20
8.855422
 30
0.0
 10
22.428836
 20
8.872073
 30
0.0
 10
22.568196
 20
8.925046
 30
0.0
 10
22.714449
 20
8.975367
 30
0.0
 10
23.004238
 20
8.996251
 30
0.0
 10
23.993556
 20
8.975931
 30
0.0
 10
24.690129
 20
8.996251
 30
0.0
 10
25.750306
 20
9.068923
 30
0.0
 10
26.116639
 20
9.105471
 30
0.0
 10
26.402552
 20
9.033279
 30
0.0
 10
26.706754
 20
8.954934
 30
0.0
 10
27.102805
 20
8.929816
 30
0.0
 10
27.570007
 20
8.958038
 30
0.0
 10
28.087665
 20
9.039375
 30
0.0
 10
28.589023
 20
9.118623
 30
0.0
 10
28.696445
 20
9.096891
 30
0.0
 10
28.776819
 20
9.033702
 30
0.0
 10
28.904194
 20
8.956063
 30
0.0
 10
29.046736
 20
8.968198
 30
0.0
 10
30.221509
 20
9.048773
 30
0.0
 10
31.363572
 20
9.019224
 30
0.0
 10
32.550280
 20
8.872440
 30
0.0
 10
32.838747
 20
8.758253
 30
0.0
 10
33.054337
 20
8.618553
 30
0.0
 10
33.195002
 20
8.454638
 30
0.0
 10
33.258720
 20
8.267723
 30
0.0
 10
33.347222
 20
7.556127
 30
0.0
 10
33.401840
 20
6.788370
 30
0.0
 10
33.369339
 20
6.100707
 30
0.0
 10
33.255590
 20
5.503779
 30
0.0
 10
33.066464
 20
5.008225
 30
0.0
 10
33.003593
 20
4.833614
 30
0.0
 10
33.007968
 20
4.711158
 30
0.0
 10
33.025550
 20
4.532907
 30
0.0
 10
33.001166
 20
4.229320
 30
0.0
 10
32.986293
 20
3.857408
 30
0.0
 10
33.027845
 20
3.416718
 30
0.0
 10
33.120292
 20
2.944870
 30
0.0
 10
33.258118
 20
2.479429
 30
0.0
 10
33.372083
 20
2.014101
 30
0.0
 10
33.389580
 20
1.913602
 30
0.0
 10
33.431623
 20
1.871777
 30
0.0
 10
33.491155
 20
1.805003
 30
0.0
 10
33.565557
 20
1.585124
 30
0.0
 10
33.610205
 20
1.500344
 30
0.0
 10
33.753224
 20
1.277022
 30
0.0
 10
34.090462
 20
0.918035
 30
0.0
 10
34.484185
 20
0.553630
 30
0.0
 10
34.796673
 20
0.313967
 30
0.0
 10
35.091344
 20
0.189704
 30
0.0
 10
35.437495
 20
0.141783
 30
0.0
 10
35.781549
 20
0.165489
 30
0.0
 10
36.026337
 20
0.322885
 30
0.0
 10
36.244789
 20
0.515840
 30
0.0
 10
36.237987
 20
1.479065
 30
0.0
 10
36.193337
 20
4.077880
 30
0.0
 10
36.190797
 20
5.265922
 30
0.0
 10
36.250701
 20
5.651099
 30
0.0
 10
36.320819
 20
5.806209
 30
0.0
 10
36.380221
 20
5.870217
 30
0.0
 10
36.411991
 20
5.849897
 30
0.0
 10
36.404964
 20
5.801213
 30
0.0
 10
36.406375
 20
5.752530
 30
0.0
 10
36.457945
 20
5.732210
 30
0.0
 10
36.519707
 20
5.755352
 30
0.0
 10
36.545417
 20
5.811147
 30
0.0
 10
36.582868
 20
5.817356
 30
0.0
 10
36.672917
 20
5.721175
 30
0.0
 10
36.784674
 20
5.491305
 30
0.0
 10
36.828105
 20
5.073475
 30
0.0
 10
36.899460
 20
2.534322
 30
0.0
 10
36.939679
 20
1.262657
 30
0.0
 10
36.996372
 20
0.638917
 30
0.0
 10
37.044166
 20
0.485981
 30
0.0
 10
37.112012
 20
0.394259
 30
0.0
 10
37.329072
 20
0.259893
 30
0.0
 10
37.599876
 20
0.193571
 30
0.0
 10
38.092150
 20
0.253966
 30
0.0
 10
38.319365
 20
0.345039
 30
0.0
 10
38.576181
 20
0.527637
 30
0.0
 10
39.111788
 20
1.087651
 30
0.0
 10
39.565288
 20
1.774438
 30
0.0
 10
39.719478
 20
2.115532
 30
0.0
 10
39.803013
 20
2.428488
 30
0.0
 10
39.893112
 20
2.834183
 30
0.0
 10
39.969196
 20
3.113216
 30
0.0
 10
40.022644
 20
3.508694
 30
0.0
 10
40.046040
 20
3.940776
 30
0.0
 10
40.031985
 20
4.329678
 30
0.0
 10
39.995214
 20
4.904904
 30
0.0
 10
39.829900
 20
5.421935
 30
0.0
 10
39.728949
 20
5.684147
 30
0.0
 10
39.662076
 20
5.956972
 30
0.0
 10
39.590999
 20
6.845548
 30
0.0
 10
39.578045
 20
7.590530
 30
0.0
 10
39.618611
 20
8.121052
 30
0.0
 10
39.730953
 20
8.495250
 30
0.0
 10
39.933340
 20
8.771292
 30
0.0
 10
40.042698
 20
8.836852
 30
0.0
 10
40.196171
 20
8.874641
 30
0.0
 10
40.596280
 20
8.893833
 30
0.0
 10
41.903403
 20
8.893833
 30
0.0
 10
43.860790
 20
8.930409
 30
0.0
 10
44.666260
 20
8.930409
 30
0.0
 10
44.852730
 20
8.950729
 30
0.0
 10
44.912050
 20
8.986373
 30
0.0
 10
44.965503
 20
9.000767
 30
0.0
 10
45.018959
 20
8.982140
 30
0.0
 10
45.858195
 20
8.982140
 30
0.0
 10
45.827150
 20
9.292076
 30
0.0
 10
45.850293
 20
10.343044
 30
0.0
 10
45.814414
 20
12.343802
 30
0.0
 10
45.753112
 20
14.591250
 30
0.0
 10
45.782136
 20
16.342024
 30
0.0
 10
45.864491
 20
16.675642
 30
0.0
 10
45.876542
 20
16.743499
 30
0.0
 10
45.838580
 20
16.798290
 30
0.0
 10
45.798646
 20
16.849900
 30
0.0
 10
45.805984
 20
16.910123
 30
0.0
 10
45.800960
 20
16.956978
 30
0.0
 10
45.731330
 20
16.976479
 30
0.0
 10
45.670548
 20
17.014148
 30
0.0
 10
45.639439
 20
17.179411
 30
0.0
 10
45.643982
 20
18.206252
 30
0.0
 10
45.686626
 20
19.125630
 30
0.0
 10
45.750640
 20
19.582435
 30
0.0
 10
45.797892
 20
19.710725
 30
0.0
 10
45.807488
 20
19.873022
 30
0.0
 10
45.706760
 20
20.433165
 30
0.0
 10
42.244232
 20
62.568915
 30
0.0
  0
ENDSEC
  0
SECTION
  2
OBJECTS
  0
DICTIONARY
  5
C
330
0
100
AcDbDictionary
  3
ACAD_GROUP
350
D
  3
ACAD_MLINESTYLE
350
17
  0
DICTIONARY
  5
D
330
C
100
AcDbDictionary
  0
DICTIONARY
  5
1A
330
C
100
AcDbDictionary
  0
DICTIONARY
  5
17
330
C
100
AcDbDictionary
  3
STANDARD
350
18
  0
DICTIONARY
  5
19
330
C
100
AcDbDictionary
  0
ENDSEC
  0
EOF
