  0
SECTION
  2
HEADER
  9
$ACADVER
  1
AC1014
  9
$HANDSEED
  5
FFFF
  9
$MEASUREMENT
 70
     1
  0
ENDSEC
  0
SECTION
  2
TABLES
  0
TABLE
  2
VPORT
  5
8
330
0
100
AcDbSymbolTable
 70
     4
  0
VPORT
  5
2E
330
8
100
AcDbSymbolTableRecord
100
AcDbViewportTableRecord
  2
*ACTIVE
 70
     0
 10
0.0
 20
0.0
 11
1.0
 21
1.0
 12
210.0
 22
148.5
 13
0.0
 23
0.0
 14
10.0
 24
10.0
 15
10.0
 25
10.0
 16
0.0
 26
0.0
 36
1.0
 17
0.0
 27
0.0
 37
0.0
 40
341.0
 41
1.24
 42
50.0
 43
0.0
 44
0.0
 50
0.0
 51
0.0
 71
     0
 72
   100
 73
     1
 74
     3
 75
     0
 76
     0
 77
     0
 78
     0
  0
ENDTAB
  0
TABLE
  2
LTYPE
  5
5
330
0
100
AcDbSymbolTable
 70
     1
  0
LTYPE
  5
14
330
5
100
AcDbSymbolTableRecord
100
AcDbLinetypeTableRecord
  2
BYBLOCK
 70
     0
  3

 72
    65
 73
     0
 40
0.0
  0
LTYPE
  5
15
330
5
100
AcDbSymbolTableRecord
100
AcDbLinetypeTableRecord
  2
BYLAYER
 70
     0
  3

 72
    65
 73
     0
 40
0.0
  0
LTYPE
  5
16
330
5
100
AcDbSymbolTableRecord
100
AcDbLinetypeTableRecord
  2
CONTINUOUS
 70
     0
  3
Solid line
 72
    65
 73
     0
 40
0.0
  0
ENDTAB
  0
TABLE
  2
LAYER
  5
2
100
AcDbSymbolTable
 70
2
  0
LAYER
  5
50
100
AcDbSymbolTableRecord
100
AcDbLayerTableRecord
  2
0
 70
0
  6
CONTINUOUS
  0
LAYER
  5
51
100
AcDbSymbolTableRecord
100
AcDbLayerTableRecord
  2
Layer_1
 70
0
  6
CONTINUOUS
  0
ENDTAB
  0
TABLE
  2
STYLE
  5
3
330
0
100
AcDbSymbolTable
 70
     1
  0
STYLE
  5
11
330
3
100
AcDbSymbolTableRecord
100
AcDbTextStyleTableRecord
  2
STANDARD
 70
     0
 40
0.0
 41
1.0
 50
0.0
 71
     0
 42
2.5
  3
txt
  4

  0
ENDTAB
  0
TABLE
  2
VIEW
  5
6
330
0
100
AcDbSymbolTable
 70
     0
  0
ENDTAB
  0
TABLE
  2
UCS
  5
7
330
0
100
AcDbSymbolTable
 70
     0
  0
ENDTAB
  0
TABLE
  2
APPID
  5
9
330
0
100
AcDbSymbolTable
 70
     2
  0
APPID
  5
12
330
9
100
AcDbSymbolTableRecord
100
AcDbRegAppTableRecord
  2
ACAD
 70
     0
  0
ENDTAB
  0
TABLE
  2
DIMSTYLE
  5
A
330
0
100
AcDbSymbolTable
 70
     1
  0
DIMSTYLE
105
27
330
A
100
AcDbSymbolTableRecord
100
AcDbDimStyleTableRecord
  2
ISO-25
 70
     0
  3

  4

  5

  6

  7

 40
1.0
 41
2.5
 42
0.625
 43
3.75
 44
1.25
 45
0.0
 46
0.0
 47
0.0
 48
0.0
140
2.5
141
2.5
142
0.0
143
0.03937007874016
144
1.0
145
0.0
146
1.0
147
0.625
 71
     0
 72
     0
 73
     0
 74
     0
 75
     0
 76
     0
 77
     1
 78
     8
170
     0
171
     3
172
     1
173
     0
174
     0
175
     0
176
     0
177
     0
178
     0
270
     2
271
     2
272
     2
273
     2
274
     3
340
11
275
     0
280
     0
281
     0
282
     0
283
     0
284
     8
285
     0
286
     0
287
     3
288
     0
  0
ENDTAB
  0
TABLE
  2
BLOCK_RECORD
  5
1
330
0
100
AcDbSymbolTable
 70
     1
  0
BLOCK_RECORD
  5
1F
330
1
100
AcDbSymbolTableRecord
100
AcDbBlockTableRecord
  2
*MODEL_SPACE
  0
BLOCK_RECORD
  5
1B
330
1
100
AcDbSymbolTableRecord
100
AcDbBlockTableRecord
  2
*PAPER_SPACE
  0
ENDTAB
  0
ENDSEC
  0
SECTION
  2
BLOCKS
  0
BLOCK
  5
20
330
1F
100
AcDbEntity
  8
0
100
AcDbBlockBegin
  2
*MODEL_SPACE
 70
     0
 10
0.0
 20
0.0
 30
0.0
  3
*MODEL_SPACE
  1

  0
ENDBLK
  5
21
330
1F
100
AcDbEntity
  8
0
100
AcDbBlockEnd
  0
BLOCK
  5
1C
330
1B
100
AcDbEntity
 67
     1
  8
0
100
AcDbBlockBegin
  2
*PAPER_SPACE
  1

  0
ENDBLK
  5
1D
330
1B
100
AcDbEntity
 67
     1
  8
0
100
AcDbBlockEnd
  0
ENDSEC
  0
SECTION
  2
ENTITIES
  0
LWPOLYLINE
  5
100
100
AcDbEntity
  8
Layer_1
 62
7
100
AcDbPolyline
 90
289
 70
0
 10
42.108047
 20
62.432908
 30
0.0
 10
34.416307
 20
62.504429
 30
0.0
 10
28.315300
 20
62.647070
 30
0.0
 10
27.517731
 20
62.719948
 30
0.0
 10
27.385096
 20
62.774118
 30
0.0
 10
27.326142
 20
62.843524
 30
0.0
 10
27.328118
 20
63.230087
 30
0.0
 10
27.376333
 20
63.698212
 30
0.0
 10
27.581121
 20
64.826663
 30
0.0
 10
28.212975
 20
67.484923
 30
0.0
 10
28.519409
 20
68.804769
 30
0.0
 10
28.739088
 20
69.978452
 30
0.0
 10
28.811698
 20
70.900991
 30
0.0
 10
28.774004
 20
71.235275
 30
0.0
 10
28.676920
 20
71.467406
 30
0.0
 10
28.572063
 20
71.547605
 30
0.0
 10
28.405137
 20
71.613253
 30
0.0
 10
27.873995
 20
71.705635
 30
0.0
 10
27.061361
 20
71.754084
 30
0.0
 10
25.945102
 20
71.768139
 30
0.0
 10
24.954547
 20
71.764188
 30
0.0
 10
24.213525
 20
71.719741
 30
0.0
 10
23.684554
 20
71.585877
 30
0.0
 10
23.487876
 20
71.470129
 30
0.0
 10
23.330156
 20
71.313688
 30
0.0
 10
23.206709
 20
71.110431
 30
0.0
 10
23.112849
 20
70.854253
 30
0.0
 10
22.995155
 20
70.158662
 30
0.0
 10
22.939594
 20
69.177999
 30
0.0
 10
22.908685
 20
67.863355
 30
0.0
 10
22.864632
 20
66.240715
 30
0.0
 10
22.801121
 20
65.321190
 30
0.0
 10
22.754661
 20
65.067633
 30
0.0
 10
22.694444
 20
64.920903
 30
0.0
 10
22.617508
 20
64.858010
 30
0.0
 10
22.520888
 20
64.856034
 30
0.0
 10
22.358306
 20
64.921095
 30
0.0
 10
22.226102
 20
65.058918
 30
0.0
 10
22.121204
 20
65.286979
 30
0.0
 10
22.040539
 20
65.622736
 30
0.0
 10
21.939618
 20
66.687185
 30
0.0
 10
21.898758
 20
68.391985
 30
0.0
 10
21.824204
 20
70.224341
 30
0.0
 10
21.758840
 20
70.843297
 30
0.0
 10
21.686944
 20
71.143720
 30
0.0
 10
21.528200
 20
71.283202
 30
0.0
 10
21.254418
 20
71.406993
 30
0.0
 10
20.435630
 20
71.596350
 30
0.0
 10
19.378357
 20
71.689546
 30
0.0
 10
18.230378
 20
71.664287
 30
0.0
 10
17.543237
 20
71.642274
 30
0.0
 10
16.931219
 20
71.643120
 30
0.0
 10
16.452874
 20
71.597502
 30
0.0
 10
16.282126
 20
71.535537
 30
0.0
 10
16.166752
 20
71.435884
 30
0.0
 10
16.134691
 20
71.314656
 30
0.0
 10
16.137372
 20
71.102763
 30
0.0
 10
16.231571
 20
70.450844
 30
0.0
 10
16.666859
 20
68.541585
 30
0.0
 10
17.658413
 20
64.758126
 30
0.0
 10
17.922473
 20
63.561503
 30
0.0
 10
17.978725
 20
62.967956
 30
0.0
 10
17.948223
 20
62.814382
 30
0.0
 10
17.888929
 20
62.712034
 30
0.0
 10
17.714851
 20
62.528285
 30
0.0
 10
17.584971
 20
62.445554
 30
0.0
 10
17.332489
 20
62.379438
 30
0.0
 10
16.371950
 20
62.290166
 30
0.0
 10
14.525879
 20
62.174774
 30
0.0
 10
11.837789
 20
62.163174
 30
0.0
 10
3.565079
 20
62.205132
 30
0.0
 10
0.089465
 20
20.207011
 30
0.0
 10
0.133040
 20
20.071293
 30
0.0
 10
0.150022
 20
19.811454
 30
0.0
 10
0.139145
 20
19.537857
 30
0.0
 10
0.099145
 20
19.360872
 30
0.0
 10
0.111958
 20
18.779413
 30
0.0
 10
0.128053
 20
18.394964
 30
0.0
 10
0.094998
 20
18.217311
 30
0.0
 10
0.060060
 20
18.078178
 30
0.0
 10
0.068216
 20
17.800604
 30
0.0
 10
0.060455
 20
17.377863
 30
0.0
 10
0.017939
 20
17.077706
 30
0.0
 10
0.005002
 20
16.484918
 30
0.0
 10
0.020919
 20
15.888390
 30
0.0
 10
0.064971
 20
15.577006
 30
0.0
 10
0.099980
 20
15.510060
 30
0.0
 10
0.061979
 20
15.487906
 30
0.0
 10
0.014260
 20
15.216267
 30
0.0
 10
0.019320
 20
14.401009
 30
0.0
 10
0.045030
 20
13.029025
 30
0.0
 10
0.016063
 20
11.532316
 30
0.0
 10
0.053748
 20
9.407151
 30
0.0
 10
0.048679
 20
9.107911
 30
0.0
 10
0.057214
 20
9.016386
 30
0.0
 10
0.128351
 20
8.954834
 30
0.0
 10
0.624109
 20
8.895454
 30
0.0
 10
1.867302
 20
8.877110
 30
0.0
 10
3.573858
 20
8.881343
 30
0.0
 10
3.903191
 20
8.911230
 30
0.0
 10
4.033532
 20
8.966066
 30
0.0
 10
4.231473
 20
9.068710
 30
0.0
 10
4.328249
 20
9.052906
 30
0.0
 10
4.417278
 20
8.992002
 30
0.0
 10
4.563041
 20
8.936405
 30
0.0
 10
4.672872
 20
8.899067
 30
0.0
 10
5.144473
 20
8.912895
 30
0.0
 10
5.236494
 20
9.027280
 30
0.0
 10
5.335499
 20
9.124252
 30
0.0
 10
5.573150
 20
9.243067
 30
0.0
 10
5.926778
 20
9.418243
 30
0.0
 10
6.134350
 20
9.628018
 30
0.0
 10
6.226483
 20
9.922348
 30
0.0
 10
6.233796
 20
10.351072
 30
0.0
 10
6.113586
 20
11.541420
 30
0.0
 10
5.929993
 20
12.396675
 30
0.0
 10
5.499142
 20
13.669500
 30
0.0
 10
5.541102
 20
14.455918
 30
0.0
 10
5.707562
 20
15.098433
 30
0.0
 10
6.011608
 20
15.816031
 30
0.0
 10
6.403814
 20
16.447128
 30
0.0
 10
6.875095
 20
16.984547
 30
0.0
 10
7.416365
 20
17.421117
 30
0.0
 10
8.018539
 20
17.749660
 30
0.0
 10
8.672530
 20
17.963003
 30
0.0
 10
9.369253
 20
18.053972
 30
0.0
 10
10.099623
 20
18.015389
 30
0.0
 10
10.559167
 20
17.920898
 30
0.0
 10
10.996366
 20
17.773556
 30
0.0
 10
11.408935
 20
17.577200
 30
0.0
 10
11.794588
 20
17.335679
 30
0.0
 10
12.151040
 20
17.052831
 30
0.0
 10
12.476005
 20
16.732500
 30
0.0
 10
12.767198
 20
16.378528
 30
0.0
 10
13.022334
 20
15.994763
 30
0.0
 10
13.239126
 20
15.585041
 30
0.0
 10
13.415290
 20
15.153207
 30
0.0
 10
13.548539
 20
14.703105
 30
0.0
 10
13.636589
 20
14.238576
 30
0.0
 10
13.677155
 20
13.763463
 30
0.0
 10
13.667949
 20
13.281611
 30
0.0
 10
13.606687
 20
12.796860
 30
0.0
 10
13.491084
 20
12.313055
 30
0.0
 10
13.280115
 20
11.106267
 30
0.0
 10
13.205565
 20
10.512559
 30
0.0
 10
13.209389
 20
9.895650
 30
0.0
 10
13.283490
 20
9.771303
 30
0.0
 10
13.357591
 20
9.722647
 30
0.0
 10
13.511260
 20
9.449372
 30
0.0
 10
13.685741
 20
9.063376
 30
0.0
 10
14.014707
 20
8.979867
 30
0.0
 10
14.517807
 20
8.923027
 30
0.0
 10
15.162316
 20
8.898474
 30
0.0
 10
16.979748
 20
8.908069
 30
0.0
 10
18.191370
 20
8.872848
 30
0.0
 10
20.411942
 20
8.849424
 30
0.0
 10
21.308130
 20
8.843779
 30
0.0
 10
21.645589
 20
8.792217
 30
0.0
 10
21.785157
 20
8.737861
 30
0.0
 10
22.038957
 20
8.718670
 30
0.0
 10
22.292687
 20
8.735321
 30
0.0
 10
22.432047
 20
8.788294
 30
0.0
 10
22.578300
 20
8.838615
 30
0.0
 10
22.868089
 20
8.859499
 30
0.0
 10
23.857407
 20
8.839179
 30
0.0
 10
24.553980
 20
8.859499
 30
0.0
 10
25.614157
 20
8.932171
 30
0.0
 10
25.980490
 20
8.968719
 30
0.0
 10
26.266403
 20
8.896527
 30
0.0
 10
26.570605
 20
8.818182
 30
0.0
 10
26.966656
 20
8.793064
 30
0.0
 10
27.433858
 20
8.821286
 30
0.0
 10
27.951516
 20
8.902623
 30
0.0
 10
28.452872
 20
8.981871
 30
0.0
 10
28.560294
 20
8.960139
 30
0.0
 10
28.640668
 20
8.896950
 30
0.0
 10
28.768044
 20
8.819311
 30
0.0
 10
28.910586
 20
8.831446
 30
0.0
 10
30.085361
 20
8.912021
 30
0.0
 10
31.227424
 20
8.882472
 30
0.0
 10
32.222765
 20
8.735688
 30
0.0
 10
32.524955
 20
8.621501
 30
0.0
 10
32.750798
 20
8.481801
 30
0.0
 10
32.898157
 20
8.317886
 30
0.0
 10
32.964905
 20
8.130971
 30
0.0
 10
33.057615
 20
7.419375
 30
0.0
 10
33.114830
 20
6.651618
 30
0.0
 10
33.080783
 20
5.963955
 30
0.0
 10
32.961623
 20
5.367027
 30
0.0
 10
32.763500
 20
4.871473
 30
0.0
 10
32.697641
 20
4.696862
 30
0.0
 10
32.702213
 20
4.574406
 30
0.0
 10
32.720642
 20
4.396155
 30
0.0
 10
32.695101
 20
4.092568
 30
0.0
 10
32.679522
 20
3.720656
 30
0.0
 10
32.723049
 20
3.279966
 30
0.0
 10
32.819897
 20
2.808118
 30
0.0
 10
32.964279
 20
2.342677
 30
0.0
 10
33.083665
 20
1.877349
 30
0.0
 10
33.101981
 20
1.776850
 30
0.0
 10
33.146024
 20
1.735025
 30
0.0
 10
33.208387
 20
1.668251
 30
0.0
 10
33.286328
 20
1.448372
 30
0.0
 10
33.333101
 20
1.363592
 30
0.0
 10
33.482921
 20
1.140270
 30
0.0
 10
33.836202
 20
0.781283
 30
0.0
 10
34.248655
 20
0.416878
 30
0.0
 10
34.576005
 20
0.177215
 30
0.0
 10
34.884694
 20
0.052952
 30
0.0
 10
35.247310
 20
0.005031
 30
0.0
 10
35.607730
 20
0.028737
 30
0.0
 10
35.864163
 20
0.186133
 30
0.0
 10
36.093006
 20
0.379088
 30
0.0
 10
36.085866
 20
1.342313
 30
0.0
 10
36.039093
 20
3.941128
 30
0.0
 10
36.036553
 20
5.129170
 30
0.0
 10
36.099308
 20
5.514347
 30
0.0
 10
36.172759
 20
5.669457
 30
0.0
 10
36.234989
 20
5.733465
 30
0.0
 10
36.268269
 20
5.713145
 30
0.0
 10
36.260903
 20
5.664461
 30
0.0
 10
36.262314
 20
5.615778
 30
0.0
 10
36.316337
 20
5.595458
 30
0.0
 10
36.381036
 20
5.618600
 30
0.0
 10
36.407960
 20
5.674395
 30
0.0
 10
36.447192
 20
5.680604
 30
0.0
 10
36.541525
 20
5.584423
 30
0.0
 10
36.658596
 20
5.354553
 30
0.0
 10
36.704093
 20
4.936723
 30
0.0
 10
36.778842
 20
2.397570
 30
0.0
 10
36.820975
 20
1.125905
 30
0.0
 10
36.880363
 20
0.502165
 30
0.0
 10
36.930432
 20
0.349229
 30
0.0
 10
37.001504
 20
0.257507
 30
0.0
 10
37.228891
 20
0.123141
 30
0.0
 10
37.512575
 20
0.056819
 30
0.0
 10
38.028266
 20
0.117214
 30
0.0
 10
38.266289
 20
0.208287
 30
0.0
 10
38.535323
 20
0.390885
 30
0.0
 10
39.096406
 20
0.950899
 30
0.0
 10
39.571479
 20
1.637686
 30
0.0
 10
39.733004
 20
1.978780
 30
0.0
 10
39.820512
 20
2.291736
 30
0.0
 10
39.914896
 20
2.697431
 30
0.0
 10
39.994598
 20
2.976464
 30
0.0
 10
40.050588
 20
3.371942
 30
0.0
 10
40.075113
 20
3.804024
 30
0.0
 10
40.060381
 20
4.192926
 30
0.0
 10
40.021861
 20
4.768152
 30
0.0
 10
39.848684
 20
5.285183
 30
0.0
 10
39.742929
 20
5.547395
 30
0.0
 10
39.672876
 20
5.820220
 30
0.0
 10
39.598417
 20
6.708796
 30
0.0
 10
39.584843
 20
7.453778
 30
0.0
 10
39.627337
 20
7.984300
 30
0.0
 10
39.745023
 20
8.358498
 30
0.0
 10
39.957037
 20
8.634540
 30
0.0
 10
40.071597
 20
8.700100
 30
0.0
 10
40.232370
 20
8.737889
 30
0.0
 10
40.651513
 20
8.757081
 30
0.0
 10
41.767270
 20
8.757081
 30
0.0
 10
43.724656
 20
8.793657
 30
0.0
 10
44.530127
 20
8.793657
 30
0.0
 10
44.716596
 20
8.813977
 30
0.0
 10
44.775917
 20
8.849621
 30
0.0
 10
44.829370
 20
8.864015
 30
0.0
 10
44.882825
 20
8.845388
 30
0.0
 10
45.722061
 20
8.845388
 30
0.0
 10
45.691017
 20
9.155324
 30
0.0
 10
45.714159
 20
10.206292
 30
0.0
 10
45.678280
 20
12.207033
 30
0.0
 10
45.616978
 20
14.454490
 30
0.0
 10
45.646002
 20
16.205261
 30
0.0
 10
45.728357
 20
16.538879
 30
0.0
 10
45.740408
 20
16.606736
 30
0.0
 10
45.702447
 20
16.661527
 30
0.0
 10
45.662512
 20
16.713137
 30
0.0
 10
45.669850
 20
16.773360
 30
0.0
 10
45.664826
 20
16.820215
 30
0.0
 10
45.595197
 20
16.839716
 30
0.0
 10
45.534412
 20
16.877384
 30
0.0
 10
45.503305
 20
17.042648
 30
0.0
 10
45.507849
 20
18.069488
 30
0.0
 10
45.550493
 20
18.988867
 30
0.0
 10
45.614506
 20
19.445671
 30
0.0
 10
45.661759
 20
19.573961
 30
0.0
 10
45.671354
 20
19.736259
 30
0.0
 10
45.570626
 20
20.296402
 30
0.0
 10
42.108098
 20
62.432152
 30
0.0
  0
ENDSEC
  0
SECTION
  2
OBJECTS
  0
DICTIONARY
  5
C
330
0
100
AcDbDictionary
  3
ACAD_GROUP
350
D
  3
ACAD_MLINESTYLE
350
17
  0
DICTIONARY
  5
D
330
C
100
AcDbDictionary
  0
DICTIONARY
  5
1A
330
C
100
AcDbDictionary
  0
DICTIONARY
  5
17
330
C
100
AcDbDictionary
  3
STANDARD
350
18
  0
DICTIONARY
  5
19
330
C
100
AcDbDictionary
  0
ENDSEC
  0
EOF
